<?xml version="1.0" encoding="UTF-8"?><svg id="b" xmlns="http://www.w3.org/2000/svg" width="619.16" height="619.16" viewBox="0 0 619.16 619.16"><g id="c"><path d="M611.66,413.27h-183.39v-207.38h183.39c4.14,0,7.5-3.36,7.5-7.5s-3.36-7.5-7.5-7.5h-183.39V7.5c0-4.14-3.36-7.5-7.5-7.5s-7.5,3.36-7.5,7.5v183.39h-207.38V7.5c0-4.14-3.36-7.5-7.5-7.5s-7.5,3.36-7.5,7.5v183.39H7.5c-4.14,0-7.5,3.36-7.5,7.5s3.36,7.5,7.5,7.5h183.39v207.38H7.5c-4.14,0-7.5,3.36-7.5,7.5s3.36,7.5,7.5,7.5h183.39v183.39c0,4.14,3.36,7.5,7.5,7.5s7.5-3.36,7.5-7.5v-183.39h207.38v183.39c0,4.14,3.36,7.5,7.5,7.5s7.5-3.36,7.5-7.5v-183.39h183.39c4.14,0,7.5-3.36,7.5-7.5s-3.36-7.5-7.5-7.5ZM205.89,413.27v-207.38h207.38v207.38h-207.38Z"/></g></svg>