<?xml version="1.0" encoding="UTF-8"?><svg id="b" xmlns="http://www.w3.org/2000/svg" width="132.55" height="132.55" viewBox="0 0 132.55 132.55"><g id="c"><path d="M83.95,66.28l44.94-44.94c4.88-4.88,4.88-12.8,0-17.68-4.88-4.88-12.8-4.88-17.68,0l-44.94,44.94L21.34,3.66C16.46-1.22,8.54-1.22,3.66,3.66c-4.88,4.88-4.88,12.8,0,17.68l44.94,44.94L3.66,111.21c-4.88,4.88-4.88,12.8,0,17.68,2.44,2.44,5.64,3.66,8.84,3.66s6.4-1.22,8.84-3.66l44.94-44.94,44.94,44.94c2.44,2.44,5.64,3.66,8.84,3.66s6.4-1.22,8.84-3.66c4.88-4.88,4.88-12.8,0-17.68l-44.94-44.94Z" fill="#f15a24"/></g></svg>